# xmcd
#
# Track frame offsets: 
#        150
#        8224
#        36973
#        79349
#        114090
#        146781
#        187083
#        206418
#        227130
#
# Disc length: 3630 seconds
#
# Revision: 3
# Processed by: cddbd v1.5.2PL0 Copyright (c) Steve Scherf et al.
# Submitted via: ExactAudioCopy v0.95b4
#
DISCID=770e2c09
DTITLE=Sun Trio - Time Is Now
DYEAR=2009
DGENRE=Jazz
TTITLE0=Us
TTITLE1=Wawa-Numnum
TTITLE2=Rolling Mountains (Vierivät vuoret)
TTITLE3=New Way (Uusi Tie)
TTITLE4=Bossa
TTITLE5=Time Is Now
TTITLE6=Brightest Hour
TTITLE7=Three Lanterns (Kolme Lyhtyä)
TTITLE8=Orgonisaatio
EXTD=YEAR: 2009
EXTT0=
EXTT1=
EXTT2=
EXTT3=
EXTT4=
EXTT5=
EXTT6=
EXTT7=
EXTT8=
PLAYORDER=
